HIERARCHY
ROOT Hips
{
	OFFSET 0.000000 100.481300 0.000000
	CHANNELS 6 Xposition Yposition Zposition Xrotation Yrotation Zrotation 
	JOINT Spine
	{
		OFFSET -0.279200 12.230698 -2.892100
		CHANNELS 3 Xrotation Yrotation Zrotation
		JOINT Spine1
		{
			OFFSET -0.232667 10.192268 -1.242267
			CHANNELS 3 Xrotation Yrotation Zrotation
			JOINT Spine1_split
			{
				OFFSET -0.232667 10.192268 -1.242267
				CHANNELS 3 Xrotation Yrotation Zrotation
				JOINT Spine2
				{
					OFFSET -0.232667 10.192268 -1.242267
					CHANNELS 3 Xrotation Yrotation Zrotation
					JOINT Neck
					{
						OFFSET -0.418800 17.814194 8.416900
						CHANNELS 3 Xrotation Yrotation Zrotation
						JOINT Head
						{
							OFFSET 0.000000 7.031097 3.806800
							CHANNELS 3 Xrotation Yrotation Zrotation
							JOINT HeadTop_End
							{
								OFFSET 0.000000 24.646606 12.978600
								CHANNELS 3 Xrotation Yrotation Zrotation
								End Site
								{
									OFFSET 0.000000 0.000000 0.000000
								}
							}
						}
					}
					JOINT LeftShoulder
					{
						OFFSET 8.476499 7.247704 -3.868750
						CHANNELS 3 Xrotation Yrotation Zrotation
						JOINT LeftShoulder_split
						{
							OFFSET 8.476499 7.247704 -3.868750
							CHANNELS 3 Xrotation Yrotation Zrotation
							JOINT LeftArm
							{
								OFFSET 9.308998 -2.777710 0.208600
								CHANNELS 3 Xrotation Yrotation Zrotation
								JOINT LeftForeArm
								{
									OFFSET 29.972298 0.000000 0.000000
									CHANNELS 3 Xrotation Yrotation Zrotation
									JOINT LeftHand
									{
										OFFSET 26.026505 0.000000 0.000000
										CHANNELS 3 Xrotation Yrotation Zrotation
										JOINT LeftHandThumb1
										{
											OFFSET 12.240501 -7.147949 9.207150
											CHANNELS 3 Xrotation Yrotation Zrotation
											JOINT LeftHandThumb2
											{
												OFFSET 4.138618 -2.389435 2.389433
												CHANNELS 3 Xrotation Yrotation Zrotation
												JOINT LeftHandThumb3
												{
													OFFSET 2.726913 -1.574387 1.574386
													CHANNELS 3 Xrotation Yrotation Zrotation
													JOINT LeftHandThumb4
													{
														OFFSET 3.941010 -2.275345 2.275342
														CHANNELS 3 Xrotation Yrotation Zrotation
														End Site
														{
															OFFSET 0.000000 0.000000 0.000000
														}
													}
												}
											}
										}
										JOINT LeftHandIndex1
										{
											OFFSET 24.424698 -1.985611 5.953459
											CHANNELS 3 Xrotation Yrotation Zrotation
											JOINT LeftHandIndex2
											{
												OFFSET 6.426697 0.000000 0.000000
												CHANNELS 3 Xrotation Yrotation Zrotation
												JOINT LeftHandIndex3
												{
													OFFSET 5.337898 0.000000 0.000000
													CHANNELS 3 Xrotation Yrotation Zrotation
													JOINT LeftHandIndex4
													{
														OFFSET 4.409401 0.000000 0.000000
														CHANNELS 3 Xrotation Yrotation Zrotation
														End Site
														{
															OFFSET 0.000000 0.000000 0.000000
														}
													}
												}
											}
										}
										JOINT LeftHandMiddle1
										{
											OFFSET 23.810104 0.000000 0.000000
											CHANNELS 3 Xrotation Yrotation Zrotation
											JOINT LeftHandMiddle2
											{
												OFFSET 7.176498 0.000000 0.000000
												CHANNELS 3 Xrotation Yrotation Zrotation
												JOINT LeftHandMiddle3
												{
													OFFSET 6.774902 0.000000 0.000000
													CHANNELS 3 Xrotation Yrotation Zrotation
													JOINT LeftHandMiddle4
													{
														OFFSET 5.403328 0.000000 0.000000
														CHANNELS 3 Xrotation Yrotation Zrotation
														End Site
														{
															OFFSET 0.000000 0.000000 0.000000
														}
													}
												}
											}
										}
										JOINT LeftHandRing1
										{
											OFFSET 22.908401 -0.839279 -6.020567
											CHANNELS 3 Xrotation Yrotation Zrotation
											JOINT LeftHandRing2
											{
												OFFSET 6.337502 0.000000 0.000000
												CHANNELS 3 Xrotation Yrotation Zrotation
												JOINT LeftHandRing3
												{
													OFFSET 5.779297 0.000000 0.000000
													CHANNELS 3 Xrotation Yrotation Zrotation
													JOINT LeftHandRing4
													{
														OFFSET 4.965698 0.000000 0.000000
														CHANNELS 3 Xrotation Yrotation Zrotation
														End Site
														{
															OFFSET 0.000000 0.000000 0.000000
														}
													}
												}
											}
										}
										JOINT LeftHandPinky1
										{
											OFFSET 20.037003 -1.530319 -10.950146
											CHANNELS 3 Xrotation Yrotation Zrotation
											JOINT LeftHandPinky2
											{
												OFFSET 5.254700 0.000000 0.000000
												CHANNELS 3 Xrotation Yrotation Zrotation
												JOINT LeftHandPinky3
												{
													OFFSET 4.810204 0.000000 0.000000
													CHANNELS 3 Xrotation Yrotation Zrotation
													JOINT LeftHandPinky4
													{
														OFFSET 3.647202 0.000000 0.000000
														CHANNELS 3 Xrotation Yrotation Zrotation
														End Site
														{
															OFFSET 0.000000 0.000000 0.000000
														}
													}
												}
											}
										}
									}
								}
							}
						}
					}
					JOINT RightShoulder
					{
						OFFSET -7.570500 7.247704 -3.868750
						CHANNELS 3 Xrotation Yrotation Zrotation
						JOINT RightShoulder_split
						{
							OFFSET -7.570500 7.247704 -3.868750
							CHANNELS 3 Xrotation Yrotation Zrotation
							JOINT RightArm
							{
								OFFSET -9.308998 -2.777710 0.208500
								CHANNELS 3 Xrotation Yrotation Zrotation
								JOINT RightForeArm
								{
									OFFSET -29.972300 0.000000 0.000000
									CHANNELS 3 Xrotation Yrotation Zrotation
									JOINT RightHand
									{
										OFFSET -26.026505 0.000000 0.000000
										CHANNELS 3 Xrotation Yrotation Zrotation
										JOINT RightHandThumb1
										{
											OFFSET -12.240601 -7.148026 9.207092
											CHANNELS 3 Xrotation Yrotation Zrotation
											JOINT RightHandThumb2
											{
												OFFSET -4.138618 -2.389435 2.389433
												CHANNELS 3 Xrotation Yrotation Zrotation
												JOINT RightHandThumb3
												{
													OFFSET -2.726974 -1.574417 1.574421
													CHANNELS 3 Xrotation Yrotation Zrotation
													JOINT RightHandThumb4
													{
														OFFSET -3.941010 -2.275345 2.275343
														CHANNELS 3 Xrotation Yrotation Zrotation
														End Site
														{
															OFFSET 0.000000 0.000000 0.000000
														}
													}
												}
											}
										}
										JOINT RightHandIndex1
										{
											OFFSET -24.424698 -1.985657 5.953444
											CHANNELS 3 Xrotation Yrotation Zrotation
											JOINT RightHandIndex2
											{
												OFFSET -6.426697 0.000000 0.000000
												CHANNELS 3 Xrotation Yrotation Zrotation
												JOINT RightHandIndex3
												{
													OFFSET -5.337898 0.000000 0.000000
													CHANNELS 3 Xrotation Yrotation Zrotation
													JOINT RightHandIndex4
													{
														OFFSET -4.409401 0.000000 0.000000
														CHANNELS 3 Xrotation Yrotation Zrotation
														End Site
														{
															OFFSET 0.000000 0.000000 0.000000
														}
													}
												}
											}
										}
										JOINT RightHandMiddle1
										{
											OFFSET -23.810097 0.000000 0.000000
											CHANNELS 3 Xrotation Yrotation Zrotation
											JOINT RightHandMiddle2
											{
												OFFSET -7.176498 0.000000 0.000000
												CHANNELS 3 Xrotation Yrotation Zrotation
												JOINT RightHandMiddle3
												{
													OFFSET -6.774902 0.000000 0.000000
													CHANNELS 3 Xrotation Yrotation Zrotation
													JOINT RightHandMiddle4
													{
														OFFSET -5.403328 0.000000 0.000000
														CHANNELS 3 Xrotation Yrotation Zrotation
														End Site
														{
															OFFSET 0.000000 0.000000 0.000000
														}
													}
												}
											}
										}
										JOINT RightHandRing1
										{
											OFFSET -22.908302 -0.839325 -6.020576
											CHANNELS 3 Xrotation Yrotation Zrotation
											JOINT RightHandRing2
											{
												OFFSET -6.337502 0.000000 0.000000
												CHANNELS 3 Xrotation Yrotation Zrotation
												JOINT RightHandRing3
												{
													OFFSET -5.779297 0.000000 0.000000
													CHANNELS 3 Xrotation Yrotation Zrotation
													JOINT RightHandRing4
													{
														OFFSET -4.965698 0.000000 0.000000
														CHANNELS 3 Xrotation Yrotation Zrotation
														End Site
														{
															OFFSET 0.000000 0.000000 0.000000
														}
													}
												}
											}
										}
										JOINT RightHandPinky1
										{
											OFFSET -20.037003 -1.530334 -10.950259
											CHANNELS 3 Xrotation Yrotation Zrotation
											JOINT RightHandPinky2
											{
												OFFSET -5.254700 0.000000 0.000000
												CHANNELS 3 Xrotation Yrotation Zrotation
												JOINT RightHandPinky3
												{
													OFFSET -4.810204 0.000000 0.000000
													CHANNELS 3 Xrotation Yrotation Zrotation
													JOINT RightHandPinky4
													{
														OFFSET -3.647202 0.000000 0.000000
														CHANNELS 3 Xrotation Yrotation Zrotation
														End Site
														{
															OFFSET 0.000000 0.000000 0.000000
														}
													}
												}
											}
										}
									}
								}
							}
						}
					}
				}
			}
		}
	}
	JOINT LeftUpLeg
	{
		OFFSET 15.427100 -6.655098 0.678600
		CHANNELS 3 Xrotation Yrotation Zrotation
		JOINT LeftLeg
		{
			OFFSET 4.081073 -39.591068 13.024000
			CHANNELS 3 Xrotation Yrotation Zrotation
			JOINT LeftFoot
			{
				OFFSET -4.081074 -37.707932 -15.979700
				CHANNELS 3 Xrotation Yrotation Zrotation
				JOINT LeftToeBase
				{
					OFFSET 5.346399 -15.068900 20.645000
					CHANNELS 3 Xrotation Yrotation Zrotation
					JOINT LeftToe_End
					{
						OFFSET 2.754700 0.931300 11.300900
						CHANNELS 3 Xrotation Yrotation Zrotation
						End Site
						{
							OFFSET 0.000000 0.000000 0.000000
						}
					}
				}
			}
		}
	}
	JOINT RightUpLeg
	{
		OFFSET -15.569500 -6.655098 0.678600
		CHANNELS 3 Xrotation Yrotation Zrotation
		JOINT RightLeg
		{
			OFFSET -4.081825 -39.591045 13.023800
			CHANNELS 3 Xrotation Yrotation Zrotation
			JOINT RightFoot
			{
				OFFSET 4.081824 -37.707954 -15.979600
				CHANNELS 3 Xrotation Yrotation Zrotation
				JOINT RightToeBase
				{
					OFFSET -5.346400 -15.068900 20.645000
					CHANNELS 3 Xrotation Yrotation Zrotation
					JOINT RightToe_End
					{
						OFFSET -2.754700 0.931300 11.300900
						CHANNELS 3 Xrotation Yrotation Zrotation
						End Site
						{
							OFFSET 0.000000 0.000000 0.000000
						}
					}
				}
			}
		}
	}
}
MOTION
Frames: 4
Frame Time: 0.016667
56.556732 66.030022 247.492432 1.299025 28.594824 -15.894181 4.446918 -3.237982 -0.588930 3.685482 -1.693000 1.426697 0.000000 0.000000 0.000000 3.657013 -1.820092 1.396210 0.856919 2.472381 0.809330 -13.888075 30.928575 5.475026 0.000001 -0.000000 -0.000001 0.537710 -0.925229 -8.721438 0.000000 0.000000 0.000000 28.704782 -17.140802 -55.244356 0.000033 -63.812033 0.000049 -14.162601 -33.316263 32.504064 5.358056 -0.141372 9.666155 3.545752 27.155808 3.560577 3.579367 15.544281 0.630960 0.000002 -0.000000 -0.000002 -1.578836 0.825932 -19.703501 0.405076 2.870991 -21.069214 0.009629 -0.615547 3.987655 0.000002 -0.000000 0.000001 0.409499 7.162241 -25.647937 0.416500 2.993247 -22.185336 0.003738 -0.023818 3.007759 0.000001 -0.000001 -0.000001 2.386869 10.570845 -32.882361 0.471663 2.115279 -18.421973 0.064948 0.187421 -1.985609 -0.000005 -0.000002 0.000002 2.967942 13.388236 -36.938906 0.139967 1.667046 -18.441902 -0.013613 0.754511 1.032450 -0.000002 0.000002 0.000001 0.815846 -4.239264 12.335987 0.000000 0.000000 0.000000 15.586529 20.224412 47.923319 0.000820 92.611730 -0.000974 -14.992130 28.643976 -6.764714 0.789356 -8.211551 -4.825414 0.020119 -13.361239 -9.371021 3.749489 -15.817813 -0.052407 0.000000 0.000000 -0.000003 -1.070491 -2.247363 17.231252 0.405442 -2.871952 21.079309 -0.189688 0.296867 8.932110 -0.000002 -0.000001 0.000000 0.438987 -7.256203 26.595148 0.417440 -2.995672 22.211553 0.081188 -1.101472 9.870309 -0.000000 -0.000001 0.000001 2.698244 -11.184229 32.166079 0.472401 -2.116944 18.440370 -0.173564 0.866921 9.714779 -0.000001 0.000002 -0.000001 4.305370 -16.260312 34.920978 0.139782 -1.666349 18.434704 -0.527462 1.126973 9.842075 -0.000000 -0.000001 0.000000 -30.515591 8.698056 2.191597 103.509188 6.672654 -0.990976 -0.337037 0.195851 17.717381 -7.194465 -0.385502 3.183612 -0.000001 0.000000 -0.000001 -47.320466 3.162587 0.645829 62.602461 6.163234 -1.147618 -19.706125 0.066992 15.299658 -4.331977 0.000004 0.000004 -0.000001 -0.000001 -0.000001 
60.810600 65.575920 254.593353 0.561930 28.525167 -16.373741 5.221360 -0.727214 -0.096848 4.311018 -0.536956 1.522723 0.000000 0.000000 0.000000 4.300141 -0.688783 1.521627 0.463913 2.096609 0.947770 -14.996449 28.403007 5.305058 0.000000 0.000001 -0.000000 0.523711 -0.270281 -7.835304 0.000000 0.000000 0.000000 34.348557 -17.343303 -56.852138 0.000012 -59.199340 0.000009 -16.618887 -33.493062 29.916775 5.358057 -0.141368 9.666155 3.545755 27.155809 3.560580 3.579365 15.544285 0.630959 -0.000006 -0.000000 -0.000000 -1.578838 0.825936 -19.703496 0.405081 2.870992 -21.069216 0.009632 -0.615548 3.987655 0.000001 -0.000001 0.000001 0.409498 7.162244 -25.647937 0.416499 2.993239 -22.185334 0.003740 -0.023818 3.007761 -0.000002 0.000003 -0.000001 2.386871 10.570852 -32.882361 0.471662 2.115281 -18.421980 0.064944 0.187419 -1.985609 0.000002 -0.000001 -0.000001 2.967941 13.388241 -36.938903 0.139962 1.667049 -18.441900 -0.013608 0.754507 1.032451 -0.000001 0.000002 -0.000002 0.730126 -2.285044 12.250241 0.000000 0.000000 0.000000 5.243285 22.564741 51.239437 0.000042 93.514907 -0.000025 -16.491828 27.969626 -4.873451 0.789357 -8.211551 -4.825408 0.020122 -13.361238 -9.371020 3.749490 -15.817810 -0.052404 0.000002 -0.000002 0.000001 -1.070489 -2.247362 17.231258 0.405443 -2.871953 21.079309 -0.189693 0.296868 8.932109 0.000001 0.000000 0.000000 0.438991 -7.256203 26.595145 0.417440 -2.995671 22.211553 0.081187 -1.101469 9.870312 -0.000000 -0.000001 -0.000001 2.698246 -11.184230 32.166079 0.472402 -2.116942 18.440370 -0.173561 0.866918 9.714779 0.000000 -0.000000 0.000000 4.305372 -16.260310 34.920981 0.139783 -1.666349 18.434710 -0.527461 1.126975 9.842076 0.000001 0.000002 -0.000000 -46.653870 8.880727 5.398550 105.224849 7.416639 -0.825437 3.106276 -0.483899 18.037826 -27.658059 -3.480741 6.729315 0.000001 0.000001 -0.000001 -38.774468 2.445772 1.138017 65.001968 7.614659 -0.393917 -29.302932 -0.549281 11.542971 -4.695492 0.000009 -0.000004 0.000000 -0.000001 -0.000000 
65.533287 65.317558 261.722076 -0.089111 28.217994 -16.631227 5.587213 1.465570 0.536634 4.651097 0.654911 1.633858 0.000000 0.000000 0.000000 4.657232 0.491970 1.673786 0.396500 1.761077 0.948530 -15.762634 26.254655 5.119160 0.000000 0.000002 -0.000000 0.472290 0.823564 -6.563497 0.000000 0.000000 0.000000 41.287049 -17.715627 -58.148699 0.000010 -58.979817 0.000009 -18.820689 -33.533476 26.792950 5.358055 -0.141376 9.666151 3.545756 27.155808 3.560577 3.579362 15.544281 0.630959 0.000000 -0.000001 0.000001 -1.578839 0.825928 -19.703494 0.405079 2.870996 -21.069216 0.009631 -0.615545 3.987655 0.000002 0.000000 -0.000002 0.409496 7.162241 -25.647936 0.416501 2.993238 -22.185334 0.003740 -0.023818 3.007759 -0.000001 -0.000002 -0.000000 2.386867 10.570845 -32.882361 0.471657 2.115276 -18.421975 0.064944 0.187420 -1.985606 0.000002 0.000001 -0.000001 2.967938 13.388235 -36.938906 0.139967 1.667050 -18.441898 -0.013612 0.754508 1.032456 -0.000000 0.000002 0.000002 0.625962 0.265413 11.021706 0.000000 0.000000 0.000000 -6.297813 23.802318 54.826902 -0.000111 96.646951 0.000098 -19.103267 24.520603 -3.410990 0.789358 -8.211554 -4.825414 0.020122 -13.361241 -9.371025 3.749492 -15.817813 -0.052412 -0.000002 0.000002 -0.000002 -1.070488 -2.247364 17.231252 0.405445 -2.871952 21.079309 -0.189688 0.296867 8.932107 -0.000000 -0.000000 0.000000 0.438993 -7.256203 26.595145 0.417441 -2.995670 22.211555 0.081191 -1.101471 9.870309 -0.000001 -0.000000 -0.000001 2.698248 -11.184230 32.166079 0.472402 -2.116943 18.440367 -0.173566 0.866920 9.714780 -0.000000 -0.000000 0.000003 4.305372 -16.260312 34.920978 0.139784 -1.666349 18.434703 -0.527463 1.126974 9.842079 -0.000001 0.000001 -0.000001 -61.969111 8.342627 7.782935 103.513224 8.604866 -0.655594 8.036760 -0.715435 18.659409 -30.309395 -2.790963 5.045293 0.000003 -0.000001 -0.000000 -28.489836 1.887144 0.858735 65.041528 8.752894 0.404190 -38.793839 0.007165 7.480750 -5.746955 -0.000002 -0.000003 -0.000000 0.000001 0.000000 
65.533287 65.317558 261.722076 -0.089111 28.217994 -16.631227 5.587213 1.465570 0.536634 4.651097 0.654911 1.633858 0.000000 0.000000 0.000000 4.657232 0.491970 1.673786 0.396500 1.761077 0.948530 -15.762634 26.254655 5.119160 0.000000 0.000002 -0.000000 0.472290 0.823564 -6.563497 0.000000 0.000000 0.000000 41.287049 -17.715627 -58.148699 0.000010 -58.979817 0.000009 -18.820689 -33.533476 26.792950 5.358055 -0.141376 9.666151 3.545756 27.155808 3.560577 3.579362 15.544281 0.630959 0.000000 -0.000001 0.000001 -1.578839 0.825928 -19.703494 0.405079 2.870996 -21.069216 0.009631 -0.615545 3.987655 0.000002 0.000000 -0.000002 0.409496 7.162241 -25.647936 0.416501 2.993238 -22.185334 0.003740 -0.023818 3.007759 -0.000001 -0.000002 -0.000000 2.386867 10.570845 -32.882361 0.471657 2.115276 -18.421975 0.064944 0.187420 -1.985606 0.000002 0.000001 -0.000001 2.967938 13.388235 -36.938906 0.139967 1.667050 -18.441898 -0.013612 0.754508 1.032456 -0.000000 0.000002 0.000002 0.625962 0.265413 11.021706 0.000000 0.000000 0.000000 -6.297813 23.802318 54.826902 -0.000111 96.646951 0.000098 -19.103267 24.520603 -3.410990 0.789358 -8.211554 -4.825414 0.020122 -13.361241 -9.371025 3.749492 -15.817813 -0.052412 -0.000002 0.000002 -0.000002 -1.070488 -2.247364 17.231252 0.405445 -2.871952 21.079309 -0.189688 0.296867 8.932107 -0.000000 -0.000000 0.000000 0.438993 -7.256203 26.595145 0.417441 -2.995670 22.211555 0.081191 -1.101471 9.870309 -0.000001 -0.000000 -0.000001 2.698248 -11.184230 32.166079 0.472402 -2.116943 18.440367 -0.173566 0.866920 9.714780 -0.000000 -0.000000 0.000003 4.305372 -16.260312 34.920978 0.139784 -1.666349 18.434703 -0.527463 1.126974 9.842079 -0.000001 0.000001 -0.000001 -61.969111 8.342627 7.782935 103.513224 8.604866 -0.655594 8.036760 -0.715435 18.659409 -30.309395 -2.790963 5.045293 0.000003 -0.000001 -0.000000 -28.489836 1.887144 0.858735 65.041528 8.752894 0.404190 -38.793839 0.007165 7.480750 -5.746955 -0.000002 -0.000003 -0.000000 0.000001 0.000000 
